<mxfile host="Electron" modified="2024-07-06T18:41:44.307Z" agent="Mozilla/5.0 (X11; Linux x86_64) AppleWebKit/537.36 (KHTML, like Gecko) draw.io/24.5.3 Chrome/124.0.6367.207 Electron/30.0.6 Safari/537.36" etag="oBkhjOrV2XLleRnpznyj" version="24.5.3" type="device">
  <diagram name="Page-1" id="ZcRAXSWJTWcisyccbfvs">
    <mxGraphModel dx="287" dy="177" grid="0" gridSize="5" guides="1" tooltips="1" connect="1" arrows="1" fold="1" page="1" pageScale="1" pageWidth="827" pageHeight="1169" math="0" shadow="0">
      <root>
        <mxCell id="0" />
        <mxCell id="1" parent="0" />
        <mxCell id="E99lIGLiU7dL8v41JwiV-16" value="" style="ellipse;whiteSpace=wrap;html=1;fillColor=none;strokeWidth=4;strokeColor=#595959;" parent="1" vertex="1">
          <mxGeometry x="300" y="680" width="120" height="120" as="geometry" />
        </mxCell>
        <mxCell id="oKaNRxnb2JUF0dyPSk8N-1" value="" style="rounded=0;whiteSpace=wrap;html=1;fillColor=none;strokeColor=none;" parent="1" vertex="1">
          <mxGeometry x="252.25" y="640" width="200" height="200" as="geometry" />
        </mxCell>
        <mxCell id="E99lIGLiU7dL8v41JwiV-20" value="" style="ellipse;whiteSpace=wrap;html=1;fillColor=none;strokeWidth=2;strokeColor=#595959;" parent="1" vertex="1">
          <mxGeometry x="335" y="715" width="50" height="50" as="geometry" />
        </mxCell>
        <mxCell id="E99lIGLiU7dL8v41JwiV-18" value="" style="endArrow=none;html=1;rounded=0;strokeWidth=7;strokeColor=#595959;" parent="1" edge="1">
          <mxGeometry width="50" height="50" relative="1" as="geometry">
            <mxPoint x="280" y="734.92" as="sourcePoint" />
            <mxPoint x="400" y="734.92" as="targetPoint" />
          </mxGeometry>
        </mxCell>
        <mxCell id="E99lIGLiU7dL8v41JwiV-19" value="" style="endArrow=none;html=1;rounded=0;strokeWidth=7;strokeColor=#595959;" parent="1" edge="1">
          <mxGeometry width="50" height="50" relative="1" as="geometry">
            <mxPoint x="280" y="744.92" as="sourcePoint" />
            <mxPoint x="400" y="744.92" as="targetPoint" />
          </mxGeometry>
        </mxCell>
        <mxCell id="E99lIGLiU7dL8v41JwiV-22" value="" style="ellipse;whiteSpace=wrap;html=1;strokeColor=none;fillColor=#595959;" parent="1" vertex="1">
          <mxGeometry x="345" y="725" width="30" height="30" as="geometry" />
        </mxCell>
      </root>
    </mxGraphModel>
  </diagram>
</mxfile>
